<?xml version="1.0" standalone="no"?>
<!DOCTYPE svg PUBLIC "-//W3C//DTD SVG 20010904//EN"
 "http://www.w3.org/TR/2001/REC-SVG-20010904/DTD/svg10.dtd">
<svg version="1.0" xmlns="http://www.w3.org/2000/svg"
 width="32.000000pt" height="32.000000pt" viewBox="0 0 32.000000 32.000000"
 preserveAspectRatio="xMidYMid meet">

<g transform="translate(0.000000,32.000000) scale(0.100000,-0.100000)"
fill="#000000" stroke="none">
<path d="M60 285 c-19 -22 -4 -45 28 -45 40 0 58 22 37 44 -20 20 -49 21 -65
1z"/>
<path d="M190 243 l-35 -38 3 -93 3 -92 35 0 34 0 0 81 c0 72 2 81 20 86 26 7
26 23 1 30 -13 3 -21 15 -23 35 l-3 29 -35 -38z"/>
<path d="M60 120 l0 -100 35 0 35 0 0 100 0 100 -35 0 -35 0 0 -100z"/>
</g>
</svg>
