<?xml version="1.0" standalone="no"?>
<!DOCTYPE svg PUBLIC "-//W3C//DTD SVG 20010904//EN"
 "http://www.w3.org/TR/2001/REC-SVG-20010904/DTD/svg10.dtd">
<svg version="1.0" xmlns="http://www.w3.org/2000/svg"
 width="32.000000pt" height="32.000000pt" viewBox="0 0 32.000000 32.000000"
 preserveAspectRatio="xMidYMid meet">

<g transform="translate(0.000000,32.000000) scale(0.100000,-0.100000)"
fill="#000000" stroke="none">
<path d="M65 286 c-16 -12 -17 -16 -6 -30 17 -20 60 -21 67 -1 7 17 -12 45
-30 45 -7 0 -21 -6 -31 -14z"/>
<path d="M190 233 c-35 -38 -35 -39 -32 -121 l3 -82 34 0 35 0 0 80 c0 73 2
80 20 80 11 0 20 5 20 10 0 6 -9 10 -19 10 -15 0 -21 8 -23 31 l-3 30 -35 -38z"/>
<path d="M60 120 l0 -100 35 0 35 0 0 100 0 100 -35 0 -35 0 0 -100z"/>
</g>
</svg>
